<svg width="24" height="24" xmlns="http://www.w3.org/2000/svg">

 <g>
  <title>background</title>
  <rect fill="none" id="canvas_background" height="402" width="582" y="-1" x="-1"/>
 </g>
 <g>
  <title>Layer 1</title>
  <g transform="rotate(89.45732879638672 12,11.999999999999998) " id="svg_1">
   <path id="svg_2" d="m24,3c0,-0.6 -0.4,-1 -1,-1l-22,0c-0.6,0 -1,0.4 -1,1l0,2c0,0.6 0.4,1 1,1l22,0c0.6,0 1,-0.4 1,-1l0,-2z"/>
   <path id="svg_3" d="m24,11c0,-0.6 -0.4,-1 -1,-1l-22,0c-0.6,0 -1,0.4 -1,1l0,2c0,0.6 0.4,1 1,1l22,0c0.6,0 1,-0.4 1,-1l0,-2z"/>
   <path id="svg_4" d="m24,19c0,-0.6 -0.4,-1 -1,-1l-22,0c-0.6,0 -1,0.4 -1,1l0,2c0,0.6 0.4,1 1,1l22,0c0.6,0 1,-0.4 1,-1l0,-2z"/>
  </g>
 </g>
</svg>