<svg xmlns="http://www.w3.org/2000/svg" xmlns:xlink="http://www.w3.org/1999/xlink" id="Layer_1" x="0" y="0" version="1.1" viewBox="0 0 496 496" xml:space="preserve" style="enable-background:new 0 0 496 496"><path style="fill:#ff2970" d="M496,465.6c0,16.8-13.6,30.4-30.4,30.4h-208c-16.8,0-30.4-13.6-30.4-30.4v-208	c0-16.8,13.6-30.4,30.4-30.4h208c16.8,0,30.4,13.6,30.4,30.4V465.6z"/><path style="fill:#d10257" d="M465.6,227.2c16.8,0,30.4,13.6,30.4,30.4v208c0,16.8-13.6,30.4-30.4,30.4h-208	c-16.8,0-30.4-13.6-30.4-30.4"/><path style="fill:#5349b7" d="M382.4,352c0,16.8-13.6,30.4-30.4,30.4H144c-16.8,0-30.4-13.6-30.4-30.4V144	c0-16.8,13.6-30.4,30.4-30.4h208c16.8,0,30.4,13.6,30.4,30.4V352z"/><g><path style="fill:#3b38a5" d="M171.2,113.6l-57.6,57.6V292h148c16.8,0,30.4-13.6,30.4-30.4v-148H171.2z"/><path style="fill:#3b38a5" d="M352,113.6c16.8,0,30.4,13.6,30.4,30.4v208c0,16.8-13.6,30.4-30.4,30.4H144 c-16.8,0-30.4-13.6-30.4-30.4"/></g><path style="fill:#d10257" d="M274.4,227.2l-47.2,47.2v126.4h143.2c16.8,0,30.4-13.6,30.4-30.4V227.2H274.4z"/><path style="fill:#37167f" d="M257.6,227.2c-16.8,0-30.4,13.6-30.4,30.4v124.8H352c16.8,0,30.4-13.6,30.4-30.4V227.2H257.6z"/><path style="fill:#2eb9ff" d="M268.8,238.4c0,16.8-13.6,30.4-30.4,30.4h-208C13.6,268.8,0,255.2,0,238.4v-208C0,13.6,13.6,0,30.4,0	h208c16.8,0,30.4,13.6,30.4,30.4V238.4z"/><path style="fill:#0097f4" d="M238.4,0c16.8,0,30.4,13.6,30.4,30.4v208c0,16.8-13.6,30.4-30.4,30.4h-208	C13.6,268.8,0,255.2,0,238.4"/></svg>